# xmcd
#
# Track frame offsets:
#	150
#	25381
#	39232
#	58595
#	75174
#	94354
#	116576
#	135517
#	153469
#	165422
#	184789
#	203097
#	220430
#
# Disc length: 3128 seconds
#
# Revision: 0
# Processed by: cddbd v1.4PL0 Copyright (c) Steve Scherf et al.
# Submitted via: EasyCDDAExtractor 5.0.5.1
#
DISCID=a60c360d
DTITLE=The Phantoms - Bad Whiskey
DYEAR=2003
DGENRE=R&B
TTITLE0=Bad Bad Whiskey
TTITLE1=Teeny Weeny Bit of Your Love
TTITLE2=Sick and Tired
TTITLE3=T-bone Shuffle
TTITLE4=Snatch it Back and Hold it
TTITLE5=You Really Got a Hold on Me
TTITLE6=Oh Pretty Woman
TTITLE7=Mess Around
TTITLE8=See Ya Later Walk
TTITLE9=Hootchie Cootchie Man
TTITLE10=5 O'Clock Blues
TTITLE11=Like a Fish
TTITLE12=Leavin' Here
EXTD=
EXTT0=
EXTT1=
EXTT2=
EXTT3=
EXTT4=
EXTT5=
EXTT6=
EXTT7=
EXTT8=
EXTT9=
EXTT10=
EXTT11=
EXTT12=
PLAYORDER=
